<svg width="499" height="521" viewBox="0 0 499 521" fill="none" xmlns="http://www.w3.org/2000/svg">
<path d="M345 52L344 53H334L333 54H328L327 55H323L322 56H319L318 57H316L315 58H312L311 59H309L308 60H306L305 61H304L303 62H301L300 63H299L298 64H297L296 65H295L294 66H293L292 67H291L290 68H289L288 69H287L285 71H284L282 73H281L279 75H278L276 77H275L271 81H270L266 85L265 84V75L264 74V71L263 70V69L262 68V67L257 62H256L252 58H251L250 57H249L248 56H246L245 55H232L231 56H226L225 57H221L220 58H217L216 59H214L213 60H211L210 61H208L207 62H205L204 63H203L202 64H200L199 65H198L197 66H196L195 67H194L193 68H192L191 69H190L189 70H188L187 71H186L185 72H184L183 73H182L181 74H180L178 76H177L176 77H175L173 79H172L171 80H170L168 82H167L164 85H163L161 87H160L157 90H156L152 94H151L143 102H142L137 107V108L130 115V116L126 120V121L124 123V124L121 127V128L120 129V130L118 132V133L116 135V136L115 137V138L114 139V140L112 142V143L111 144V145L110 146V147L109 148V149L108 150V152L107 153V154L106 155V156L105 157V159L104 160V161L103 162V164L102 165V167L101 168V170L100 171V173L99 174V176L98 177V180L97 181V184L96 185V188L95 189V192L94 193V197L93 198V203L92 204V209L91 210V217L90 218V228L89 229V278L90 279V290L91 291V299L92 300V306L93 307V312L94 313V317L95 318V322L96 323V326L97 327V330L98 331V333L99 334V337L100 338V340L101 341V343L102 344V346L103 347V349L104 350V352L105 353V355L106 356V357L107 358V359L108 360V362L109 363V364L110 365V366L111 367V368L112 369V370L113 371V372L114 373V374L115 375V376L116 377V378L117 379V380L119 382V383L120 384V385L122 387V388L124 390V391L126 393V394L129 397V398L131 400V401L133 403V404L137 408V409L142 414V415L158 431H159L164 436H165L168 439H169L172 442H173L174 443H175L177 445H178L180 447H181L182 448H183L184 449H185L186 450H187L189 452H190L191 453H192L193 454H194L195 455H196L197 456H199L200 457H201L202 458H203L204 459H206L207 460H209L210 461H211L212 462H214L215 463H218L219 464H221L222 465H225L226 466H230L231 467H235L236 468H241L242 469H253L254 470H259L260 469H261L262 468H263V467L264 466V463L265 462V461L264 460L265 459V442L264 441L265 440V436L264 435V434L265 433L264 432V431L265 430V428L266 427H270L271 428H272L275 431H276L282 437H283L294 448H295L301 454H302L304 456H305L307 458H308L309 459H310L311 460H312L313 461H314L315 462H317L318 463H319L320 464H323L324 465H326L327 466H330L331 467H335L336 468H341L342 469H352L353 470H385L386 469H390L391 468H393L394 467H396L397 466H398L400 464H401L406 459V458L407 457V456L408 455V454L409 453V450L410 449V448L409 447V443L408 442V440L407 439V437L406 436V434L405 433V432L404 431V429L403 428V426L402 425V424L401 423V422L400 421V420L399 419V417L398 416V415L397 414V413L396 412V411L395 410V409L394 408V407L393 406V405L392 404V402L390 400V399L389 398V397L388 396V395L387 394V393L386 392V391L385 390V389L384 388V387L383 386V385L381 383V382L380 381V380L379 379V378L378 377V376L377 375V374L375 372V371L374 370V369L373 368V367L371 365V364L370 363V362L368 360V359L367 358V357L365 355V354L364 353V352L362 350V349L360 347V346L358 344V343L357 342V341L355 339V338L353 336V335L352 334V333L349 330V329L347 327V326L345 324V323L342 320V319L340 317V316L337 313V312L335 310V309L331 305V304L327 300V299L321 293V292L309 280H308L303 275H302L299 272H298L294 268H293L290 265H289L285 261V259L289 255H290L293 252H294L296 250H297L300 247H301L305 243H306L310 239H311L316 234H317L331 220V219L337 213V212L341 208V207L345 203V202L348 199V198L351 195V194L353 192V191L355 189V188L359 184V183L360 182V181L363 178V177L365 175V174L367 172V171L368 170V169L370 167V166L372 164V163L373 162V161L375 159V158L377 156V155L379 153V152L380 151V150L381 149V148L383 146V145L385 143V142L386 141V140L387 139V138L388 137V136L390 134V133L391 132V131L392 130V129L393 128V127L394 126V125L395 124V123L396 122V121L397 120V119L398 118V117L399 116V115L400 114V112L401 111V110L402 109V108L403 107V105L404 104V103L405 102V100L406 99V98L407 97V94L408 93V90L409 89V82L410 81V80L409 79V74L408 73V71L406 69V68L402 64H401L400 63H399L394 58H393L392 57H391L390 56H388L387 55H384L383 54H378L377 53H367L366 52H345ZM124 272L125 271H227L228 272H249L250 273V373L251 374V383L250 384H247L246 383H242L241 382H239L238 381H236L235 380H234L233 379H231L230 378H229L228 377H227L226 376H225L224 375H223L222 374H221L219 372H218L217 371H216L214 369H213L211 367H210L205 362H204L200 358H199L191 350H190L172 332V331L159 318V317H158L157 316V315L151 309V308L143 300V299L133 289V288L127 282V281L122 276V273L123 272H124ZM247 142L248 141L249 142V248L248 249H222L221 250H160L159 249H127L126 248L135 239H136L149 226V225L150 224H151V223L159 215V214L168 205V204L183 189V188L184 187H185V186L186 185H187L190 182V181L191 180H192V179L193 178H194L205 167H206L210 163H211L214 160H215L218 157H219L220 156H221L224 153H225L226 152H227L229 150H230L231 149H232L233 148H234L235 147H236L237 146H238L239 145H240L241 144H242L243 143H244L245 142H247Z" fill="#2397FF"/>
</svg>
