<?xml version="1.0" encoding="utf-8" ?>
<svg baseProfile="tiny" height="429px" version="1.2" width="1462px" xmlns="http://www.w3.org/2000/svg" xmlns:ev="http://www.w3.org/2001/xml-events" xmlns:xlink="http://www.w3.org/1999/xlink"><defs /><path d="M 933 167 L 932 168 L 926 168 L 925 169 L 922 169 L 921 170 L 919 170 L 918 171 L 917 171 L 916 172 L 915 172 L 914 173 L 913 173 L 912 174 L 911 174 L 910 175 L 909 175 L 907 177 L 906 177 L 897 186 L 897 187 L 895 189 L 895 190 L 893 192 L 893 193 L 892 194 L 892 196 L 891 197 L 891 199 L 890 200 L 890 202 L 889 203 L 889 210 L 888 211 L 888 214 L 889 215 L 889 221 L 890 222 L 890 224 L 891 225 L 891 227 L 892 228 L 892 230 L 893 231 L 893 232 L 894 233 L 894 234 L 896 236 L 896 237 L 899 240 L 899 241 L 901 243 L 901 244 L 905 248 L 905 249 L 908 252 L 909 252 L 913 256 L 914 256 L 916 258 L 917 258 L 918 259 L 919 259 L 920 260 L 921 260 L 922 261 L 924 261 L 925 262 L 927 262 L 928 263 L 930 263 L 931 264 L 936 264 L 937 265 L 949 265 L 950 264 L 954 264 L 955 263 L 958 263 L 959 262 L 961 262 L 962 261 L 963 261 L 964 260 L 965 260 L 966 259 L 967 259 L 968 258 L 969 258 L 970 257 L 971 257 L 973 255 L 974 255 L 983 246 L 983 245 L 986 242 L 986 241 L 987 240 L 987 239 L 988 238 L 988 237 L 989 236 L 989 234 L 990 233 L 990 232 L 991 231 L 991 227 L 992 226 L 992 211 L 991 210 L 991 207 L 990 206 L 990 203 L 989 202 L 989 201 L 988 200 L 988 199 L 986 197 L 986 196 L 985 195 L 985 194 L 983 192 L 983 191 L 974 182 L 973 182 L 971 180 L 970 180 L 967 177 L 966 177 L 964 175 L 963 175 L 962 174 L 961 174 L 960 173 L 959 173 L 958 172 L 957 172 L 956 171 L 955 171 L 954 170 L 952 170 L 951 169 L 948 169 L 947 168 L 940 168 L 939 167 Z" fill="#0055FF" stroke="none" /><path d="M 1287 7 L 1286 8 L 1285 8 L 1278 15 L 1278 16 L 1276 18 L 1276 19 L 1275 20 L 1275 21 L 1274 22 L 1274 23 L 1273 24 L 1273 25 L 1272 26 L 1272 28 L 1271 29 L 1271 30 L 1270 31 L 1270 32 L 1269 33 L 1269 34 L 1268 35 L 1268 37 L 1267 38 L 1267 39 L 1266 40 L 1266 42 L 1265 43 L 1265 44 L 1264 45 L 1264 47 L 1263 48 L 1263 49 L 1262 50 L 1262 52 L 1261 53 L 1261 54 L 1260 55 L 1260 57 L 1259 58 L 1259 59 L 1258 60 L 1258 62 L 1257 63 L 1257 65 L 1256 66 L 1256 67 L 1255 68 L 1255 70 L 1254 71 L 1254 73 L 1253 74 L 1253 75 L 1252 76 L 1252 78 L 1251 79 L 1251 81 L 1250 82 L 1250 84 L 1249 85 L 1249 86 L 1248 87 L 1248 89 L 1247 90 L 1247 92 L 1246 93 L 1246 95 L 1245 96 L 1245 97 L 1244 98 L 1244 100 L 1243 101 L 1243 103 L 1242 104 L 1242 105 L 1241 106 L 1241 108 L 1240 109 L 1240 111 L 1239 112 L 1239 113 L 1238 114 L 1238 116 L 1237 117 L 1237 119 L 1236 120 L 1236 121 L 1235 122 L 1235 124 L 1234 125 L 1234 126 L 1233 127 L 1233 129 L 1232 130 L 1232 132 L 1231 133 L 1231 134 L 1230 135 L 1230 137 L 1229 138 L 1229 139 L 1228 140 L 1228 142 L 1227 143 L 1227 144 L 1226 145 L 1226 147 L 1225 148 L 1225 150 L 1224 151 L 1224 152 L 1223 153 L 1223 155 L 1222 156 L 1222 157 L 1221 158 L 1221 160 L 1220 161 L 1220 162 L 1219 163 L 1219 165 L 1218 166 L 1218 167 L 1217 168 L 1217 170 L 1216 171 L 1216 172 L 1215 173 L 1215 175 L 1214 176 L 1214 177 L 1213 178 L 1213 180 L 1212 181 L 1212 183 L 1211 184 L 1211 185 L 1210 186 L 1210 188 L 1209 189 L 1209 190 L 1208 191 L 1208 193 L 1207 194 L 1207 195 L 1206 196 L 1206 198 L 1205 199 L 1205 200 L 1204 201 L 1204 203 L 1203 204 L 1203 205 L 1202 206 L 1202 208 L 1201 209 L 1201 210 L 1200 211 L 1200 213 L 1199 214 L 1199 215 L 1198 216 L 1198 218 L 1197 219 L 1197 220 L 1196 221 L 1196 223 L 1195 224 L 1195 225 L 1194 226 L 1194 228 L 1193 229 L 1193 230 L 1192 231 L 1192 233 L 1191 234 L 1191 235 L 1190 236 L 1190 238 L 1189 239 L 1189 240 L 1188 241 L 1188 243 L 1187 244 L 1187 245 L 1186 246 L 1186 248 L 1185 249 L 1185 250 L 1184 251 L 1184 253 L 1183 254 L 1183 255 L 1182 256 L 1182 258 L 1181 259 L 1181 260 L 1180 261 L 1180 263 L 1179 264 L 1179 265 L 1178 266 L 1178 268 L 1177 269 L 1177 270 L 1176 271 L 1176 272 L 1175 273 L 1175 275 L 1174 276 L 1174 277 L 1173 278 L 1173 280 L 1172 281 L 1172 282 L 1171 283 L 1171 285 L 1170 286 L 1170 287 L 1169 288 L 1169 289 L 1168 290 L 1168 292 L 1167 293 L 1167 294 L 1166 295 L 1166 297 L 1165 298 L 1165 299 L 1164 300 L 1164 302 L 1163 303 L 1163 304 L 1162 305 L 1162 306 L 1161 307 L 1161 309 L 1160 310 L 1160 311 L 1159 312 L 1159 314 L 1158 315 L 1158 316 L 1157 317 L 1157 318 L 1156 319 L 1156 321 L 1155 322 L 1155 323 L 1154 324 L 1154 325 L 1153 326 L 1153 328 L 1152 329 L 1152 330 L 1151 331 L 1151 333 L 1150 334 L 1150 335 L 1149 336 L 1149 337 L 1148 338 L 1148 340 L 1147 341 L 1147 342 L 1146 343 L 1146 344 L 1145 345 L 1145 347 L 1144 348 L 1144 349 L 1143 350 L 1143 351 L 1142 352 L 1142 354 L 1141 355 L 1141 356 L 1140 357 L 1140 358 L 1139 359 L 1139 361 L 1138 362 L 1138 363 L 1137 364 L 1137 365 L 1136 366 L 1136 368 L 1135 369 L 1135 370 L 1134 371 L 1134 373 L 1133 374 L 1133 376 L 1132 377 L 1132 379 L 1131 380 L 1131 382 L 1130 383 L 1130 385 L 1129 386 L 1129 388 L 1128 389 L 1128 391 L 1127 392 L 1127 395 L 1126 396 L 1126 402 L 1125 403 L 1125 404 L 1126 405 L 1126 407 L 1127 408 L 1127 409 L 1131 413 L 1131 414 L 1133 416 L 1133 417 L 1134 418 L 1135 418 L 1138 421 L 1140 421 L 1141 422 L 1143 422 L 1144 423 L 1147 423 L 1148 424 L 1156 424 L 1157 425 L 1177 425 L 1178 424 L 1185 424 L 1186 423 L 1191 423 L 1192 422 L 1194 422 L 1195 421 L 1198 421 L 1199 420 L 1201 420 L 1202 419 L 1203 419 L 1204 418 L 1205 418 L 1209 414 L 1209 413 L 1210 412 L 1210 411 L 1212 409 L 1212 408 L 1213 407 L 1213 406 L 1214 405 L 1214 404 L 1215 403 L 1215 401 L 1216 400 L 1216 399 L 1217 398 L 1217 396 L 1218 395 L 1218 394 L 1219 393 L 1219 390 L 1220 389 L 1220 388 L 1221 387 L 1221 385 L 1222 384 L 1222 381 L 1223 380 L 1223 378 L 1224 377 L 1224 376 L 1227 373 L 1249 373 L 1250 372 L 1251 373 L 1259 373 L 1260 372 L 1272 372 L 1273 373 L 1274 372 L 1290 372 L 1291 373 L 1292 372 L 1309 372 L 1310 373 L 1311 372 L 1351 372 L 1352 373 L 1363 373 L 1365 375 L 1365 378 L 1366 379 L 1366 381 L 1367 382 L 1367 385 L 1368 386 L 1368 388 L 1369 389 L 1369 391 L 1370 392 L 1370 394 L 1371 395 L 1371 396 L 1372 397 L 1372 399 L 1374 401 L 1374 402 L 1375 403 L 1375 404 L 1378 407 L 1378 408 L 1380 410 L 1380 411 L 1388 419 L 1389 419 L 1390 420 L 1391 420 L 1392 421 L 1393 421 L 1394 422 L 1397 422 L 1398 423 L 1402 423 L 1403 424 L 1412 424 L 1413 425 L 1436 425 L 1437 424 L 1443 424 L 1444 423 L 1447 423 L 1448 422 L 1450 422 L 1451 421 L 1452 421 L 1453 420 L 1454 420 L 1458 416 L 1458 415 L 1459 414 L 1459 412 L 1460 411 L 1460 404 L 1459 403 L 1459 399 L 1458 398 L 1458 395 L 1457 394 L 1457 392 L 1456 391 L 1456 389 L 1455 388 L 1455 386 L 1454 385 L 1454 383 L 1453 382 L 1453 380 L 1452 379 L 1452 378 L 1451 377 L 1451 375 L 1450 374 L 1450 373 L 1449 372 L 1449 370 L 1448 369 L 1448 368 L 1447 367 L 1447 365 L 1446 364 L 1446 362 L 1445 361 L 1445 360 L 1444 359 L 1444 358 L 1443 357 L 1443 355 L 1442 354 L 1442 352 L 1441 351 L 1441 349 L 1440 348 L 1440 347 L 1439 346 L 1439 344 L 1438 343 L 1438 342 L 1437 341 L 1437 339 L 1436 338 L 1436 337 L 1435 336 L 1435 334 L 1434 333 L 1434 331 L 1433 330 L 1433 329 L 1432 328 L 1432 326 L 1431 325 L 1431 324 L 1430 323 L 1430 321 L 1429 320 L 1429 319 L 1428 318 L 1428 316 L 1427 315 L 1427 314 L 1426 313 L 1426 311 L 1425 310 L 1425 308 L 1424 307 L 1424 306 L 1423 305 L 1423 303 L 1422 302 L 1422 300 L 1421 299 L 1421 298 L 1420 297 L 1420 295 L 1419 294 L 1419 293 L 1418 292 L 1418 290 L 1417 289 L 1417 287 L 1416 286 L 1416 285 L 1415 284 L 1415 282 L 1414 281 L 1414 280 L 1413 279 L 1413 277 L 1412 276 L 1412 275 L 1411 274 L 1411 272 L 1410 271 L 1410 270 L 1409 269 L 1409 267 L 1408 266 L 1408 264 L 1407 263 L 1407 262 L 1406 261 L 1406 259 L 1405 258 L 1405 257 L 1404 256 L 1404 254 L 1403 253 L 1403 251 L 1402 250 L 1402 249 L 1401 248 L 1401 246 L 1400 245 L 1400 244 L 1399 243 L 1399 241 L 1398 240 L 1398 239 L 1397 238 L 1397 236 L 1396 235 L 1396 233 L 1395 232 L 1395 231 L 1394 230 L 1394 228 L 1393 227 L 1393 226 L 1392 225 L 1392 223 L 1391 222 L 1391 220 L 1390 219 L 1390 218 L 1389 217 L 1389 215 L 1388 214 L 1388 212 L 1387 211 L 1387 210 L 1386 209 L 1386 207 L 1385 206 L 1385 205 L 1384 204 L 1384 202 L 1383 201 L 1383 200 L 1382 199 L 1382 198 L 1381 197 L 1381 195 L 1380 194 L 1380 192 L 1379 191 L 1379 189 L 1378 188 L 1378 187 L 1377 186 L 1377 184 L 1376 183 L 1376 182 L 1375 181 L 1375 179 L 1374 178 L 1374 177 L 1373 176 L 1373 174 L 1372 173 L 1372 171 L 1371 170 L 1371 169 L 1370 168 L 1370 166 L 1369 165 L 1369 164 L 1368 163 L 1368 161 L 1367 160 L 1367 158 L 1366 157 L 1366 156 L 1365 155 L 1365 153 L 1364 152 L 1364 151 L 1363 150 L 1363 148 L 1362 147 L 1362 145 L 1361 144 L 1361 143 L 1360 142 L 1360 140 L 1359 139 L 1359 138 L 1358 137 L 1358 135 L 1357 134 L 1357 133 L 1356 132 L 1356 130 L 1355 129 L 1355 128 L 1354 127 L 1354 125 L 1353 124 L 1353 122 L 1352 121 L 1352 120 L 1351 119 L 1351 118 L 1350 117 L 1350 115 L 1349 114 L 1349 112 L 1348 111 L 1348 109 L 1347 108 L 1347 107 L 1346 106 L 1346 104 L 1345 103 L 1345 102 L 1344 101 L 1344 99 L 1343 98 L 1343 97 L 1342 96 L 1342 94 L 1341 93 L 1341 91 L 1340 90 L 1340 89 L 1339 88 L 1339 86 L 1338 85 L 1338 84 L 1337 83 L 1337 81 L 1336 80 L 1336 79 L 1335 78 L 1335 76 L 1334 75 L 1334 74 L 1333 73 L 1333 71 L 1332 70 L 1332 68 L 1331 67 L 1331 66 L 1330 65 L 1330 63 L 1329 62 L 1329 60 L 1328 59 L 1328 58 L 1327 57 L 1327 55 L 1326 54 L 1326 53 L 1325 52 L 1325 50 L 1324 49 L 1324 47 L 1323 46 L 1323 45 L 1322 44 L 1322 42 L 1321 41 L 1321 40 L 1320 39 L 1320 38 L 1319 37 L 1319 35 L 1318 34 L 1318 33 L 1317 32 L 1317 31 L 1316 30 L 1316 29 L 1315 28 L 1315 27 L 1314 26 L 1314 25 L 1313 24 L 1313 23 L 1312 22 L 1312 21 L 1306 15 L 1305 15 L 1303 13 L 1302 13 L 1298 9 L 1297 9 L 1296 8 L 1293 8 L 1292 7 Z M 1295 182 L 1296 181 L 1297 181 L 1298 182 L 1298 183 L 1299 184 L 1299 186 L 1300 187 L 1300 189 L 1301 190 L 1301 191 L 1302 192 L 1302 193 L 1303 194 L 1303 196 L 1304 197 L 1304 199 L 1305 200 L 1305 201 L 1306 202 L 1306 203 L 1307 204 L 1307 207 L 1308 208 L 1308 209 L 1309 210 L 1309 212 L 1310 213 L 1310 214 L 1311 215 L 1311 217 L 1312 218 L 1312 220 L 1313 221 L 1313 222 L 1314 223 L 1314 225 L 1315 226 L 1315 228 L 1316 229 L 1316 230 L 1317 231 L 1317 233 L 1318 234 L 1318 235 L 1319 236 L 1319 238 L 1320 239 L 1320 241 L 1321 242 L 1321 243 L 1322 244 L 1322 246 L 1323 247 L 1323 249 L 1324 250 L 1324 252 L 1325 253 L 1325 254 L 1326 255 L 1326 257 L 1327 258 L 1327 260 L 1328 261 L 1328 262 L 1329 263 L 1329 265 L 1330 266 L 1330 268 L 1331 269 L 1331 271 L 1332 272 L 1332 273 L 1333 274 L 1333 276 L 1334 277 L 1334 279 L 1335 280 L 1335 282 L 1336 283 L 1336 285 L 1337 286 L 1337 287 L 1338 288 L 1338 290 L 1339 291 L 1339 292 L 1338 293 L 1253 293 L 1252 292 L 1252 291 L 1253 290 L 1253 289 L 1254 288 L 1254 286 L 1255 285 L 1255 284 L 1256 283 L 1256 281 L 1257 280 L 1257 279 L 1258 278 L 1258 276 L 1259 275 L 1259 273 L 1260 272 L 1260 271 L 1261 270 L 1261 268 L 1262 267 L 1262 266 L 1263 265 L 1263 263 L 1264 262 L 1264 261 L 1265 260 L 1265 258 L 1266 257 L 1266 255 L 1267 254 L 1267 253 L 1268 252 L 1268 250 L 1269 249 L 1269 248 L 1270 247 L 1270 245 L 1271 244 L 1271 243 L 1272 242 L 1272 240 L 1273 239 L 1273 237 L 1274 236 L 1274 235 L 1275 234 L 1275 233 L 1276 232 L 1276 230 L 1277 229 L 1277 227 L 1278 226 L 1278 224 L 1279 223 L 1279 222 L 1280 221 L 1280 219 L 1281 218 L 1281 216 L 1282 215 L 1282 214 L 1283 213 L 1283 210 L 1284 209 L 1284 208 L 1285 207 L 1285 205 L 1286 204 L 1286 202 L 1287 201 L 1287 199 L 1288 198 L 1288 197 L 1289 196 L 1289 194 L 1290 193 L 1290 192 L 1291 191 L 1291 190 L 1292 189 L 1292 188 L 1293 187 L 1293 186 L 1294 185 L 1294 184 L 1295 183 Z" fill="#0055FF" stroke="none" /><path d="M 925 7 L 924 8 L 915 8 L 914 9 L 908 9 L 907 10 L 902 10 L 901 11 L 897 11 L 896 12 L 892 12 L 891 13 L 888 13 L 887 14 L 884 14 L 883 15 L 881 15 L 880 16 L 877 16 L 876 17 L 874 17 L 873 18 L 871 18 L 870 19 L 868 19 L 867 20 L 866 20 L 865 21 L 863 21 L 862 22 L 861 22 L 860 23 L 858 23 L 857 24 L 856 24 L 855 25 L 854 25 L 853 26 L 852 26 L 851 27 L 849 27 L 848 28 L 847 28 L 846 29 L 845 29 L 843 31 L 842 31 L 841 32 L 840 32 L 839 33 L 838 33 L 837 34 L 836 34 L 834 36 L 833 36 L 832 37 L 831 37 L 829 39 L 828 39 L 826 41 L 825 41 L 823 43 L 822 43 L 819 46 L 818 46 L 815 49 L 814 49 L 810 53 L 809 53 L 802 60 L 801 60 L 790 71 L 790 72 L 782 80 L 782 81 L 778 85 L 778 86 L 775 89 L 775 90 L 772 93 L 772 94 L 770 96 L 770 97 L 768 99 L 768 100 L 766 102 L 766 103 L 764 105 L 764 106 L 763 107 L 763 108 L 762 109 L 762 110 L 760 112 L 760 113 L 759 114 L 759 115 L 758 116 L 758 117 L 757 118 L 757 119 L 756 120 L 756 121 L 755 122 L 755 123 L 754 124 L 754 125 L 753 126 L 753 128 L 752 129 L 752 130 L 751 131 L 751 132 L 750 133 L 750 135 L 749 136 L 749 137 L 748 138 L 748 140 L 747 141 L 747 143 L 746 144 L 746 146 L 745 147 L 745 149 L 744 150 L 744 152 L 743 153 L 743 156 L 742 157 L 742 159 L 741 160 L 741 163 L 740 164 L 740 168 L 739 169 L 739 173 L 738 174 L 738 179 L 737 180 L 737 185 L 736 186 L 736 195 L 735 196 L 735 231 L 736 232 L 736 240 L 737 241 L 737 247 L 738 248 L 738 252 L 739 253 L 739 257 L 740 258 L 740 261 L 741 262 L 741 265 L 742 266 L 742 269 L 743 270 L 743 272 L 744 273 L 744 275 L 745 276 L 745 278 L 746 279 L 746 281 L 747 282 L 747 284 L 748 285 L 748 287 L 749 288 L 749 289 L 750 290 L 750 292 L 751 293 L 751 295 L 752 296 L 752 297 L 753 298 L 753 299 L 754 300 L 754 301 L 755 302 L 755 303 L 756 304 L 756 305 L 757 306 L 757 307 L 758 308 L 758 309 L 759 310 L 759 311 L 760 312 L 760 313 L 761 314 L 761 315 L 762 316 L 762 317 L 764 319 L 764 320 L 765 321 L 765 322 L 767 324 L 767 325 L 769 327 L 769 328 L 771 330 L 771 331 L 773 333 L 773 334 L 776 337 L 776 338 L 778 340 L 778 341 L 781 344 L 781 345 L 783 347 L 783 348 L 788 353 L 788 354 L 794 360 L 794 361 L 809 376 L 810 376 L 817 383 L 818 383 L 821 386 L 822 386 L 825 389 L 826 389 L 828 391 L 829 391 L 831 393 L 832 393 L 834 395 L 835 395 L 837 397 L 838 397 L 839 398 L 840 398 L 842 400 L 843 400 L 844 401 L 845 401 L 846 402 L 847 402 L 848 403 L 849 403 L 850 404 L 851 404 L 852 405 L 853 405 L 854 406 L 855 406 L 856 407 L 857 407 L 858 408 L 859 408 L 860 409 L 862 409 L 863 410 L 864 410 L 865 411 L 867 411 L 868 412 L 869 412 L 870 413 L 872 413 L 873 414 L 875 414 L 876 415 L 878 415 L 879 416 L 881 416 L 882 417 L 885 417 L 886 418 L 889 418 L 890 419 L 893 419 L 894 420 L 898 420 L 899 421 L 902 421 L 903 422 L 909 422 L 910 423 L 915 423 L 916 424 L 926 424 L 927 425 L 959 425 L 960 424 L 966 424 L 967 423 L 972 423 L 973 422 L 977 422 L 978 421 L 981 421 L 982 420 L 986 420 L 987 419 L 990 419 L 991 418 L 993 418 L 994 417 L 996 417 L 997 416 L 1000 416 L 1001 415 L 1003 415 L 1004 414 L 1005 414 L 1006 413 L 1008 413 L 1009 412 L 1010 412 L 1011 411 L 1013 411 L 1014 410 L 1015 410 L 1016 409 L 1018 409 L 1019 408 L 1020 408 L 1021 407 L 1022 407 L 1023 406 L 1024 406 L 1025 405 L 1026 405 L 1027 404 L 1028 404 L 1029 403 L 1030 403 L 1031 402 L 1032 402 L 1033 401 L 1034 401 L 1036 399 L 1037 399 L 1038 398 L 1039 398 L 1040 397 L 1041 397 L 1043 395 L 1044 395 L 1045 394 L 1046 394 L 1049 391 L 1050 391 L 1052 389 L 1053 389 L 1055 387 L 1056 387 L 1059 384 L 1060 384 L 1064 380 L 1065 380 L 1072 373 L 1073 373 L 1085 361 L 1085 360 L 1091 354 L 1091 353 L 1095 349 L 1095 348 L 1098 345 L 1098 344 L 1101 341 L 1101 340 L 1103 338 L 1103 337 L 1105 335 L 1105 334 L 1106 333 L 1106 332 L 1108 330 L 1108 329 L 1110 327 L 1110 326 L 1111 325 L 1111 324 L 1113 322 L 1113 321 L 1114 320 L 1114 319 L 1115 318 L 1115 317 L 1116 316 L 1116 315 L 1117 314 L 1117 313 L 1118 312 L 1118 311 L 1119 310 L 1119 309 L 1120 308 L 1120 307 L 1121 306 L 1121 305 L 1122 304 L 1122 302 L 1123 301 L 1123 300 L 1124 299 L 1124 298 L 1125 297 L 1125 295 L 1126 294 L 1126 292 L 1127 291 L 1127 289 L 1128 288 L 1128 286 L 1129 285 L 1129 283 L 1130 282 L 1130 280 L 1131 279 L 1131 277 L 1132 276 L 1132 274 L 1133 273 L 1133 269 L 1134 268 L 1134 265 L 1135 264 L 1135 260 L 1136 259 L 1136 256 L 1137 255 L 1137 249 L 1138 248 L 1138 241 L 1139 240 L 1139 229 L 1140 228 L 1140 207 L 1139 206 L 1139 194 L 1138 193 L 1138 187 L 1137 186 L 1137 180 L 1136 179 L 1136 175 L 1135 174 L 1135 171 L 1134 170 L 1134 167 L 1133 166 L 1133 163 L 1132 162 L 1132 159 L 1131 158 L 1131 156 L 1130 155 L 1130 153 L 1129 152 L 1129 151 L 1128 150 L 1128 148 L 1127 147 L 1127 145 L 1126 144 L 1126 142 L 1125 141 L 1125 140 L 1124 139 L 1124 138 L 1123 137 L 1123 135 L 1122 134 L 1122 133 L 1121 132 L 1121 131 L 1120 130 L 1120 129 L 1119 128 L 1119 127 L 1118 126 L 1118 125 L 1117 124 L 1117 123 L 1116 122 L 1116 121 L 1115 120 L 1115 119 L 1113 117 L 1113 116 L 1112 115 L 1112 114 L 1111 113 L 1111 112 L 1109 110 L 1109 109 L 1107 107 L 1107 106 L 1106 105 L 1106 104 L 1103 101 L 1103 100 L 1101 98 L 1101 97 L 1098 94 L 1098 93 L 1095 90 L 1095 89 L 1091 85 L 1091 84 L 1082 75 L 1082 74 L 1074 66 L 1073 66 L 1072 65 L 1072 64 L 1071 64 L 1064 57 L 1063 57 L 1059 53 L 1058 53 L 1054 49 L 1053 49 L 1051 47 L 1050 47 L 1047 44 L 1046 44 L 1044 42 L 1043 42 L 1040 39 L 1039 39 L 1037 37 L 1036 37 L 1035 36 L 1034 36 L 1032 34 L 1031 34 L 1030 33 L 1029 33 L 1027 31 L 1026 31 L 1025 30 L 1024 30 L 1023 29 L 1022 29 L 1021 28 L 1020 28 L 1019 27 L 1018 27 L 1017 26 L 1016 26 L 1015 25 L 1014 25 L 1013 24 L 1012 24 L 1011 23 L 1010 23 L 1009 22 L 1007 22 L 1006 21 L 1005 21 L 1004 20 L 1002 20 L 1001 19 L 999 19 L 998 18 L 997 18 L 996 17 L 994 17 L 993 16 L 990 16 L 989 15 L 987 15 L 986 14 L 983 14 L 982 13 L 979 13 L 978 12 L 975 12 L 974 11 L 970 11 L 969 10 L 964 10 L 963 9 L 957 9 L 956 8 L 945 8 L 944 7 Z M 927 96 L 928 95 L 953 95 L 954 96 L 960 96 L 961 97 L 966 97 L 967 98 L 971 98 L 972 99 L 975 99 L 976 100 L 978 100 L 979 101 L 981 101 L 982 102 L 984 102 L 985 103 L 986 103 L 987 104 L 989 104 L 990 105 L 991 105 L 992 106 L 994 106 L 995 107 L 996 107 L 998 109 L 1000 109 L 1001 110 L 1002 110 L 1004 112 L 1005 112 L 1006 113 L 1007 113 L 1009 115 L 1010 115 L 1012 117 L 1013 117 L 1015 119 L 1016 119 L 1019 122 L 1020 122 L 1025 127 L 1026 127 L 1027 128 L 1027 129 L 1028 129 L 1034 135 L 1034 136 L 1035 136 L 1036 137 L 1036 138 L 1040 142 L 1040 143 L 1043 146 L 1043 147 L 1045 149 L 1045 150 L 1046 151 L 1046 152 L 1047 153 L 1047 154 L 1049 156 L 1049 157 L 1050 158 L 1050 159 L 1051 160 L 1051 162 L 1052 163 L 1052 164 L 1053 165 L 1053 166 L 1054 167 L 1054 169 L 1055 170 L 1055 172 L 1056 173 L 1056 174 L 1057 175 L 1057 177 L 1058 178 L 1058 181 L 1059 182 L 1059 185 L 1060 186 L 1060 190 L 1061 191 L 1061 197 L 1062 198 L 1062 227 L 1061 228 L 1061 234 L 1060 235 L 1060 239 L 1059 240 L 1059 243 L 1058 244 L 1058 246 L 1057 247 L 1057 250 L 1056 251 L 1056 253 L 1055 254 L 1055 255 L 1054 256 L 1054 258 L 1053 259 L 1053 260 L 1052 261 L 1052 263 L 1051 264 L 1051 265 L 1050 266 L 1050 267 L 1049 268 L 1049 269 L 1048 270 L 1048 271 L 1046 273 L 1046 274 L 1045 275 L 1045 276 L 1043 278 L 1043 279 L 1042 280 L 1042 281 L 1039 284 L 1039 285 L 1037 287 L 1037 288 L 1032 293 L 1032 294 L 1019 307 L 1018 307 L 1013 312 L 1012 312 L 1010 314 L 1009 314 L 1006 317 L 1005 317 L 1003 319 L 1002 319 L 1001 320 L 1000 320 L 998 322 L 997 322 L 996 323 L 995 323 L 994 324 L 993 324 L 992 325 L 991 325 L 990 326 L 989 326 L 988 327 L 987 327 L 986 328 L 984 328 L 983 329 L 982 329 L 981 330 L 979 330 L 978 331 L 976 331 L 975 332 L 973 332 L 972 333 L 970 333 L 969 334 L 966 334 L 965 335 L 961 335 L 960 336 L 956 336 L 955 337 L 949 337 L 948 338 L 920 338 L 919 337 L 913 337 L 912 336 L 908 336 L 907 335 L 903 335 L 902 334 L 900 334 L 899 333 L 896 333 L 895 332 L 893 332 L 892 331 L 890 331 L 889 330 L 888 330 L 887 329 L 885 329 L 884 328 L 883 328 L 882 327 L 880 327 L 879 326 L 878 326 L 877 325 L 876 325 L 875 324 L 874 324 L 873 323 L 872 323 L 870 321 L 869 321 L 868 320 L 867 320 L 865 318 L 864 318 L 862 316 L 861 316 L 857 312 L 856 312 L 855 311 L 855 310 L 854 310 L 845 301 L 845 300 L 840 295 L 840 294 L 837 291 L 837 290 L 834 287 L 834 286 L 832 284 L 832 283 L 831 282 L 831 281 L 829 279 L 829 278 L 828 277 L 828 276 L 827 275 L 827 274 L 826 273 L 826 272 L 825 271 L 825 270 L 824 269 L 824 268 L 823 267 L 823 265 L 822 264 L 822 263 L 821 262 L 821 260 L 820 259 L 820 257 L 819 256 L 819 254 L 818 253 L 818 250 L 817 249 L 817 246 L 816 245 L 816 241 L 815 240 L 815 235 L 814 234 L 814 205 L 815 204 L 815 198 L 816 197 L 816 193 L 817 192 L 817 189 L 818 188 L 818 185 L 819 184 L 819 182 L 820 181 L 820 179 L 821 178 L 821 177 L 822 176 L 822 174 L 823 173 L 823 171 L 824 170 L 824 169 L 825 168 L 825 167 L 826 166 L 826 165 L 827 164 L 827 163 L 828 162 L 828 161 L 829 160 L 829 159 L 830 158 L 830 157 L 832 155 L 832 154 L 834 152 L 834 151 L 836 149 L 836 148 L 839 145 L 839 144 L 843 140 L 843 139 L 857 125 L 858 125 L 862 121 L 863 121 L 865 119 L 866 119 L 869 116 L 870 116 L 872 114 L 873 114 L 874 113 L 875 113 L 877 111 L 878 111 L 879 110 L 880 110 L 881 109 L 882 109 L 883 108 L 884 108 L 885 107 L 886 107 L 887 106 L 888 106 L 889 105 L 891 105 L 892 104 L 893 104 L 894 103 L 896 103 L 897 102 L 899 102 L 900 101 L 902 101 L 903 100 L 905 100 L 906 99 L 909 99 L 910 98 L 914 98 L 915 97 L 919 97 L 920 96 Z" fill="#0055FF" stroke="none" /><path d="M 690 7 L 689 8 L 679 8 L 678 9 L 673 9 L 672 10 L 668 10 L 667 11 L 664 11 L 663 12 L 661 12 L 660 13 L 657 13 L 656 14 L 654 14 L 653 15 L 651 15 L 650 16 L 649 16 L 648 17 L 646 17 L 645 18 L 644 18 L 643 19 L 642 19 L 641 20 L 640 20 L 639 21 L 638 21 L 637 22 L 636 22 L 635 23 L 634 23 L 633 24 L 632 24 L 630 26 L 629 26 L 627 28 L 626 28 L 624 30 L 623 30 L 621 32 L 620 32 L 616 36 L 615 36 L 611 40 L 610 39 L 610 30 L 609 29 L 609 26 L 608 25 L 608 24 L 607 23 L 607 22 L 602 17 L 601 17 L 597 13 L 596 13 L 595 12 L 594 12 L 593 11 L 591 11 L 590 10 L 577 10 L 576 11 L 571 11 L 570 12 L 566 12 L 565 13 L 562 13 L 561 14 L 559 14 L 558 15 L 556 15 L 555 16 L 553 16 L 552 17 L 550 17 L 549 18 L 548 18 L 547 19 L 545 19 L 544 20 L 543 20 L 542 21 L 541 21 L 540 22 L 539 22 L 538 23 L 537 23 L 536 24 L 535 24 L 534 25 L 533 25 L 532 26 L 531 26 L 530 27 L 529 27 L 528 28 L 527 28 L 526 29 L 525 29 L 523 31 L 522 31 L 521 32 L 520 32 L 518 34 L 517 34 L 516 35 L 515 35 L 513 37 L 512 37 L 509 40 L 508 40 L 506 42 L 505 42 L 502 45 L 501 45 L 497 49 L 496 49 L 488 57 L 487 57 L 482 62 L 482 63 L 475 70 L 475 71 L 471 75 L 471 76 L 469 78 L 469 79 L 466 82 L 466 83 L 465 84 L 465 85 L 463 87 L 463 88 L 461 90 L 461 91 L 460 92 L 460 93 L 459 94 L 459 95 L 457 97 L 457 98 L 456 99 L 456 100 L 455 101 L 455 102 L 454 103 L 454 104 L 453 105 L 453 107 L 452 108 L 452 109 L 451 110 L 451 111 L 450 112 L 450 114 L 449 115 L 449 116 L 448 117 L 448 119 L 447 120 L 447 122 L 446 123 L 446 125 L 445 126 L 445 128 L 444 129 L 444 131 L 443 132 L 443 135 L 442 136 L 442 139 L 441 140 L 441 143 L 440 144 L 440 147 L 439 148 L 439 152 L 438 153 L 438 158 L 437 159 L 437 164 L 436 165 L 436 172 L 435 173 L 435 183 L 434 184 L 434 233 L 435 234 L 435 245 L 436 246 L 436 254 L 437 255 L 437 261 L 438 262 L 438 267 L 439 268 L 439 272 L 440 273 L 440 277 L 441 278 L 441 281 L 442 282 L 442 285 L 443 286 L 443 288 L 444 289 L 444 292 L 445 293 L 445 295 L 446 296 L 446 298 L 447 299 L 447 301 L 448 302 L 448 304 L 449 305 L 449 307 L 450 308 L 450 310 L 451 311 L 451 312 L 452 313 L 452 314 L 453 315 L 453 317 L 454 318 L 454 319 L 455 320 L 455 321 L 456 322 L 456 323 L 457 324 L 457 325 L 458 326 L 458 327 L 459 328 L 459 329 L 460 330 L 460 331 L 461 332 L 461 333 L 462 334 L 462 335 L 464 337 L 464 338 L 465 339 L 465 340 L 467 342 L 467 343 L 469 345 L 469 346 L 471 348 L 471 349 L 474 352 L 474 353 L 476 355 L 476 356 L 478 358 L 478 359 L 482 363 L 482 364 L 487 369 L 487 370 L 503 386 L 504 386 L 509 391 L 510 391 L 513 394 L 514 394 L 517 397 L 518 397 L 519 398 L 520 398 L 522 400 L 523 400 L 525 402 L 526 402 L 527 403 L 528 403 L 529 404 L 530 404 L 531 405 L 532 405 L 534 407 L 535 407 L 536 408 L 537 408 L 538 409 L 539 409 L 540 410 L 541 410 L 542 411 L 544 411 L 545 412 L 546 412 L 547 413 L 548 413 L 549 414 L 551 414 L 552 415 L 554 415 L 555 416 L 556 416 L 557 417 L 559 417 L 560 418 L 563 418 L 564 419 L 566 419 L 567 420 L 570 420 L 571 421 L 575 421 L 576 422 L 580 422 L 581 423 L 586 423 L 587 424 L 598 424 L 599 425 L 604 425 L 605 424 L 606 424 L 607 423 L 608 423 L 608 422 L 609 421 L 609 418 L 610 417 L 610 416 L 609 415 L 610 414 L 610 397 L 609 396 L 610 395 L 610 391 L 609 390 L 609 389 L 610 388 L 609 387 L 609 386 L 610 385 L 610 383 L 611 382 L 615 382 L 616 383 L 617 383 L 620 386 L 621 386 L 627 392 L 628 392 L 639 403 L 640 403 L 646 409 L 647 409 L 649 411 L 650 411 L 652 413 L 653 413 L 654 414 L 655 414 L 656 415 L 657 415 L 658 416 L 659 416 L 660 417 L 662 417 L 663 418 L 664 418 L 665 419 L 668 419 L 669 420 L 671 420 L 672 421 L 675 421 L 676 422 L 680 422 L 681 423 L 686 423 L 687 424 L 697 424 L 698 425 L 730 425 L 731 424 L 735 424 L 736 423 L 738 423 L 739 422 L 741 422 L 742 421 L 743 421 L 745 419 L 746 419 L 751 414 L 751 413 L 752 412 L 752 411 L 753 410 L 753 409 L 754 408 L 754 405 L 755 404 L 755 403 L 754 402 L 754 398 L 753 397 L 753 395 L 752 394 L 752 392 L 751 391 L 751 389 L 750 388 L 750 387 L 749 386 L 749 384 L 748 383 L 748 381 L 747 380 L 747 379 L 746 378 L 746 377 L 745 376 L 745 375 L 744 374 L 744 372 L 743 371 L 743 370 L 742 369 L 742 368 L 741 367 L 741 366 L 740 365 L 740 364 L 739 363 L 739 362 L 738 361 L 738 360 L 737 359 L 737 357 L 735 355 L 735 354 L 734 353 L 734 352 L 733 351 L 733 350 L 732 349 L 732 348 L 731 347 L 731 346 L 730 345 L 730 344 L 729 343 L 729 342 L 728 341 L 728 340 L 726 338 L 726 337 L 725 336 L 725 335 L 724 334 L 724 333 L 723 332 L 723 331 L 722 330 L 722 329 L 720 327 L 720 326 L 719 325 L 719 324 L 718 323 L 718 322 L 716 320 L 716 319 L 715 318 L 715 317 L 713 315 L 713 314 L 712 313 L 712 312 L 710 310 L 710 309 L 709 308 L 709 307 L 707 305 L 707 304 L 705 302 L 705 301 L 703 299 L 703 298 L 702 297 L 702 296 L 700 294 L 700 293 L 698 291 L 698 290 L 697 289 L 697 288 L 694 285 L 694 284 L 692 282 L 692 281 L 690 279 L 690 278 L 687 275 L 687 274 L 685 272 L 685 271 L 682 268 L 682 267 L 680 265 L 680 264 L 676 260 L 676 259 L 672 255 L 672 254 L 666 248 L 666 247 L 654 235 L 653 235 L 648 230 L 647 230 L 644 227 L 643 227 L 639 223 L 638 223 L 635 220 L 634 220 L 630 216 L 630 214 L 634 210 L 635 210 L 638 207 L 639 207 L 641 205 L 642 205 L 645 202 L 646 202 L 650 198 L 651 198 L 655 194 L 656 194 L 661 189 L 662 189 L 676 175 L 676 174 L 682 168 L 682 167 L 686 163 L 686 162 L 690 158 L 690 157 L 693 154 L 693 153 L 696 150 L 696 149 L 698 147 L 698 146 L 700 144 L 700 143 L 704 139 L 704 138 L 705 137 L 705 136 L 708 133 L 708 132 L 710 130 L 710 129 L 712 127 L 712 126 L 713 125 L 713 124 L 715 122 L 715 121 L 717 119 L 717 118 L 718 117 L 718 116 L 720 114 L 720 113 L 722 111 L 722 110 L 724 108 L 724 107 L 725 106 L 725 105 L 726 104 L 726 103 L 728 101 L 728 100 L 730 98 L 730 97 L 731 96 L 731 95 L 732 94 L 732 93 L 733 92 L 733 91 L 735 89 L 735 88 L 736 87 L 736 86 L 737 85 L 737 84 L 738 83 L 738 82 L 739 81 L 739 80 L 740 79 L 740 78 L 741 77 L 741 76 L 742 75 L 742 74 L 743 73 L 743 72 L 744 71 L 744 70 L 745 69 L 745 67 L 746 66 L 746 65 L 747 64 L 747 63 L 748 62 L 748 60 L 749 59 L 749 58 L 750 57 L 750 55 L 751 54 L 751 53 L 752 52 L 752 49 L 753 48 L 753 45 L 754 44 L 754 37 L 755 36 L 755 35 L 754 34 L 754 29 L 753 28 L 753 26 L 751 24 L 751 23 L 747 19 L 746 19 L 745 18 L 744 18 L 739 13 L 738 13 L 737 12 L 736 12 L 735 11 L 733 11 L 732 10 L 729 10 L 728 9 L 723 9 L 722 8 L 712 8 L 711 7 Z M 469 227 L 470 226 L 572 226 L 573 227 L 594 227 L 595 228 L 595 328 L 596 329 L 596 338 L 595 339 L 592 339 L 591 338 L 587 338 L 586 337 L 584 337 L 583 336 L 581 336 L 580 335 L 579 335 L 578 334 L 576 334 L 575 333 L 574 333 L 573 332 L 572 332 L 571 331 L 570 331 L 569 330 L 568 330 L 567 329 L 566 329 L 564 327 L 563 327 L 562 326 L 561 326 L 559 324 L 558 324 L 556 322 L 555 322 L 550 317 L 549 317 L 545 313 L 544 313 L 536 305 L 535 305 L 517 287 L 517 286 L 504 273 L 504 272 L 503 272 L 502 271 L 502 270 L 496 264 L 496 263 L 488 255 L 488 254 L 478 244 L 478 243 L 472 237 L 472 236 L 467 231 L 467 228 L 468 227 Z M 592 97 L 593 96 L 594 97 L 594 203 L 593 204 L 567 204 L 566 205 L 505 205 L 504 204 L 472 204 L 471 203 L 480 194 L 481 194 L 494 181 L 494 180 L 495 179 L 496 179 L 496 178 L 504 170 L 504 169 L 513 160 L 513 159 L 528 144 L 528 143 L 529 142 L 530 142 L 530 141 L 531 140 L 532 140 L 535 137 L 535 136 L 536 135 L 537 135 L 537 134 L 538 133 L 539 133 L 550 122 L 551 122 L 555 118 L 556 118 L 559 115 L 560 115 L 563 112 L 564 112 L 565 111 L 566 111 L 569 108 L 570 108 L 571 107 L 572 107 L 574 105 L 575 105 L 576 104 L 577 104 L 578 103 L 579 103 L 580 102 L 581 102 L 582 101 L 583 101 L 584 100 L 585 100 L 586 99 L 587 99 L 588 98 L 589 98 L 590 97 Z" fill="#0055FF" stroke="none" /><path d="M 276 7 L 275 8 L 274 8 L 272 10 L 271 10 L 269 12 L 269 13 L 267 15 L 267 16 L 266 17 L 266 18 L 264 20 L 264 21 L 263 22 L 263 23 L 262 24 L 262 25 L 261 26 L 261 27 L 260 28 L 260 29 L 259 30 L 259 31 L 258 32 L 258 33 L 257 34 L 257 35 L 256 36 L 256 38 L 255 39 L 255 40 L 254 41 L 254 42 L 253 43 L 253 44 L 252 45 L 252 47 L 251 48 L 251 49 L 250 50 L 250 51 L 249 52 L 249 54 L 248 55 L 248 56 L 247 57 L 247 59 L 246 60 L 246 61 L 245 62 L 245 64 L 244 65 L 244 66 L 243 67 L 243 69 L 242 70 L 242 71 L 241 72 L 241 74 L 240 75 L 240 76 L 239 77 L 239 79 L 238 80 L 238 82 L 237 83 L 237 84 L 236 85 L 236 87 L 235 88 L 235 89 L 234 90 L 234 92 L 233 93 L 233 94 L 232 95 L 232 97 L 231 98 L 231 99 L 230 100 L 230 102 L 229 103 L 229 104 L 228 105 L 228 107 L 227 108 L 227 109 L 226 110 L 226 112 L 225 113 L 225 114 L 224 115 L 224 116 L 223 117 L 223 119 L 222 120 L 222 121 L 221 122 L 221 124 L 220 125 L 220 126 L 219 127 L 219 128 L 218 129 L 218 131 L 217 132 L 217 133 L 216 134 L 216 135 L 215 136 L 215 138 L 214 139 L 214 140 L 213 141 L 213 142 L 212 143 L 212 145 L 211 146 L 211 147 L 210 148 L 210 150 L 209 151 L 209 152 L 208 153 L 208 154 L 207 155 L 207 157 L 206 158 L 206 159 L 205 160 L 205 161 L 204 162 L 204 164 L 203 165 L 203 166 L 202 167 L 202 168 L 201 169 L 201 171 L 200 172 L 200 173 L 199 174 L 199 175 L 198 176 L 198 178 L 197 179 L 197 180 L 196 181 L 196 183 L 195 184 L 195 185 L 194 186 L 194 187 L 193 188 L 193 190 L 192 191 L 192 192 L 191 193 L 191 194 L 190 195 L 190 197 L 189 198 L 189 199 L 188 200 L 188 201 L 187 202 L 187 204 L 186 205 L 186 206 L 185 207 L 185 209 L 184 210 L 184 211 L 183 212 L 183 213 L 182 214 L 182 216 L 181 217 L 181 218 L 180 219 L 180 220 L 179 221 L 179 223 L 178 224 L 178 225 L 177 226 L 177 228 L 176 229 L 176 230 L 175 231 L 175 232 L 174 233 L 174 235 L 173 236 L 173 237 L 172 238 L 172 240 L 171 241 L 171 242 L 170 243 L 170 245 L 169 246 L 169 247 L 168 248 L 168 249 L 167 250 L 167 252 L 166 253 L 166 254 L 165 255 L 165 257 L 164 258 L 164 259 L 163 260 L 163 262 L 162 263 L 162 264 L 161 265 L 161 267 L 160 268 L 160 269 L 159 270 L 159 272 L 158 273 L 158 274 L 157 275 L 157 277 L 156 278 L 156 279 L 155 280 L 155 282 L 154 283 L 154 284 L 153 285 L 153 287 L 152 288 L 152 289 L 151 290 L 151 292 L 150 293 L 150 294 L 149 295 L 149 296 L 148 297 L 148 299 L 147 300 L 147 301 L 146 302 L 146 304 L 145 305 L 145 306 L 144 307 L 144 309 L 143 310 L 143 311 L 142 312 L 142 313 L 141 314 L 141 316 L 140 317 L 140 318 L 139 319 L 139 321 L 138 322 L 138 323 L 137 324 L 137 325 L 136 326 L 136 328 L 135 329 L 135 330 L 134 331 L 134 332 L 133 333 L 133 335 L 132 336 L 132 337 L 131 338 L 131 340 L 130 341 L 130 342 L 129 343 L 129 344 L 128 345 L 128 347 L 127 348 L 127 349 L 126 350 L 126 351 L 125 352 L 125 354 L 124 355 L 124 356 L 123 357 L 123 358 L 122 359 L 122 360 L 121 361 L 121 363 L 120 364 L 120 365 L 119 366 L 119 367 L 118 368 L 118 370 L 117 371 L 117 372 L 116 373 L 116 374 L 115 375 L 115 377 L 114 378 L 114 379 L 113 380 L 113 382 L 112 383 L 112 385 L 111 386 L 111 388 L 110 389 L 110 391 L 109 392 L 109 394 L 108 395 L 108 398 L 107 399 L 107 406 L 108 407 L 108 408 L 109 409 L 109 410 L 110 411 L 111 411 L 112 412 L 112 413 L 113 414 L 113 415 L 118 420 L 119 420 L 120 421 L 121 421 L 122 422 L 123 422 L 124 423 L 129 423 L 130 424 L 139 424 L 140 425 L 169 425 L 170 424 L 179 424 L 180 423 L 183 423 L 184 422 L 185 422 L 186 421 L 187 421 L 189 419 L 190 419 L 192 417 L 192 416 L 194 414 L 194 413 L 196 411 L 196 410 L 197 409 L 197 408 L 198 407 L 198 406 L 199 405 L 199 404 L 200 403 L 200 401 L 201 400 L 201 399 L 202 398 L 202 396 L 203 395 L 203 393 L 204 392 L 204 389 L 205 388 L 205 385 L 206 384 L 206 382 L 207 381 L 207 378 L 208 377 L 208 375 L 211 372 L 314 372 L 315 373 L 317 373 L 318 372 L 319 373 L 320 372 L 321 373 L 326 373 L 327 372 L 328 373 L 354 373 L 355 372 L 356 373 L 357 373 L 358 372 L 359 373 L 360 372 L 361 373 L 362 373 L 364 375 L 364 378 L 365 379 L 365 381 L 366 382 L 366 385 L 367 386 L 367 388 L 368 389 L 368 390 L 369 391 L 369 393 L 370 394 L 370 396 L 371 397 L 371 398 L 373 400 L 373 401 L 374 402 L 374 403 L 378 407 L 378 408 L 379 409 L 379 410 L 387 418 L 388 418 L 390 420 L 391 420 L 392 421 L 393 421 L 394 422 L 396 422 L 397 423 L 400 423 L 401 424 L 407 424 L 408 425 L 433 425 L 434 424 L 435 425 L 436 424 L 445 424 L 446 423 L 448 423 L 449 422 L 450 422 L 451 421 L 452 421 L 454 419 L 455 419 L 458 416 L 458 415 L 459 414 L 459 413 L 460 412 L 460 409 L 461 408 L 461 406 L 460 405 L 460 399 L 459 398 L 459 396 L 458 395 L 458 393 L 457 392 L 457 391 L 456 390 L 456 388 L 455 387 L 455 386 L 454 385 L 454 383 L 453 382 L 453 380 L 452 379 L 452 378 L 451 377 L 451 376 L 450 375 L 450 373 L 449 372 L 449 370 L 448 369 L 448 368 L 447 367 L 447 365 L 446 364 L 446 363 L 445 362 L 445 360 L 444 359 L 444 358 L 443 357 L 443 355 L 442 354 L 442 353 L 441 352 L 441 351 L 440 350 L 440 348 L 439 347 L 439 346 L 438 345 L 438 344 L 437 343 L 437 341 L 436 340 L 436 339 L 435 338 L 435 337 L 434 336 L 434 334 L 433 333 L 433 332 L 432 331 L 432 330 L 431 329 L 431 327 L 430 326 L 430 325 L 429 324 L 429 323 L 428 322 L 428 321 L 427 320 L 427 318 L 426 317 L 426 316 L 425 315 L 425 314 L 424 313 L 424 311 L 423 310 L 423 309 L 422 308 L 422 307 L 421 306 L 421 305 L 420 304 L 420 302 L 419 301 L 419 299 L 418 298 L 418 297 L 417 296 L 417 295 L 416 294 L 416 292 L 415 291 L 415 290 L 414 289 L 414 288 L 413 287 L 413 285 L 412 284 L 412 283 L 411 282 L 411 280 L 410 279 L 410 278 L 409 277 L 409 275 L 408 274 L 408 273 L 407 272 L 407 270 L 406 269 L 406 268 L 405 267 L 405 266 L 404 265 L 404 263 L 403 262 L 403 260 L 402 259 L 402 258 L 401 257 L 401 256 L 400 255 L 400 253 L 399 252 L 399 251 L 398 250 L 398 248 L 397 247 L 397 246 L 396 245 L 396 244 L 395 243 L 395 241 L 394 240 L 394 238 L 393 237 L 393 236 L 392 235 L 392 234 L 391 233 L 391 231 L 390 230 L 390 229 L 389 228 L 389 226 L 388 225 L 388 224 L 387 223 L 387 221 L 386 220 L 386 219 L 385 218 L 385 216 L 384 215 L 384 214 L 383 213 L 383 211 L 382 210 L 382 209 L 381 208 L 381 207 L 380 206 L 380 204 L 379 203 L 379 202 L 378 201 L 378 199 L 377 198 L 377 197 L 376 196 L 376 194 L 375 193 L 375 192 L 374 191 L 374 189 L 373 188 L 373 187 L 372 186 L 372 185 L 371 184 L 371 182 L 370 181 L 370 179 L 369 178 L 369 177 L 368 176 L 368 174 L 367 173 L 367 172 L 366 171 L 366 170 L 365 169 L 365 167 L 364 166 L 364 165 L 363 164 L 363 162 L 362 161 L 362 160 L 361 159 L 361 157 L 360 156 L 360 155 L 359 154 L 359 153 L 358 152 L 358 150 L 357 149 L 357 148 L 356 147 L 356 145 L 355 144 L 355 143 L 354 142 L 354 140 L 353 139 L 353 138 L 352 137 L 352 135 L 351 134 L 351 133 L 350 132 L 350 130 L 349 129 L 349 128 L 348 127 L 348 125 L 347 124 L 347 123 L 346 122 L 346 120 L 345 119 L 345 118 L 344 117 L 344 115 L 343 114 L 343 113 L 342 112 L 342 110 L 341 109 L 341 108 L 340 107 L 340 105 L 339 104 L 339 103 L 338 102 L 338 100 L 337 99 L 337 98 L 336 97 L 336 95 L 335 94 L 335 93 L 334 92 L 334 90 L 333 89 L 333 88 L 332 87 L 332 85 L 331 84 L 331 83 L 330 82 L 330 81 L 329 80 L 329 77 L 328 76 L 328 75 L 327 74 L 327 73 L 326 72 L 326 70 L 325 69 L 325 68 L 324 67 L 324 65 L 323 64 L 323 62 L 322 61 L 322 60 L 321 59 L 321 57 L 320 56 L 320 54 L 319 53 L 319 52 L 318 51 L 318 48 L 317 47 L 317 46 L 316 45 L 316 43 L 315 42 L 315 40 L 314 39 L 314 38 L 313 37 L 313 35 L 312 34 L 312 33 L 311 32 L 311 30 L 310 29 L 310 28 L 308 26 L 308 24 L 306 22 L 306 21 L 300 15 L 299 15 L 295 11 L 294 11 L 293 10 L 292 10 L 291 9 L 289 9 L 288 8 L 284 8 L 283 7 Z M 288 181 L 289 182 L 289 183 L 290 184 L 290 186 L 291 187 L 291 188 L 292 189 L 292 191 L 293 192 L 293 193 L 294 194 L 294 196 L 295 197 L 295 199 L 296 200 L 296 201 L 297 202 L 297 204 L 298 205 L 298 207 L 299 208 L 299 209 L 300 210 L 300 212 L 301 213 L 301 214 L 302 215 L 302 217 L 303 218 L 303 219 L 304 220 L 304 222 L 305 223 L 305 225 L 306 226 L 306 227 L 307 228 L 307 230 L 308 231 L 308 232 L 309 233 L 309 235 L 310 236 L 310 237 L 311 238 L 311 240 L 312 241 L 312 242 L 313 243 L 313 245 L 314 246 L 314 247 L 315 248 L 315 250 L 316 251 L 316 252 L 317 253 L 317 255 L 318 256 L 318 257 L 319 258 L 319 260 L 320 261 L 320 263 L 321 264 L 321 265 L 322 266 L 322 268 L 323 269 L 323 270 L 324 271 L 324 273 L 325 274 L 325 275 L 326 276 L 326 278 L 327 279 L 327 280 L 328 281 L 328 283 L 329 284 L 329 285 L 330 286 L 330 288 L 331 289 L 331 290 L 330 291 L 243 291 L 242 290 L 242 289 L 243 288 L 243 287 L 244 286 L 244 284 L 245 283 L 245 282 L 246 281 L 246 279 L 247 278 L 247 277 L 248 276 L 248 274 L 249 273 L 249 272 L 250 271 L 250 269 L 251 268 L 251 267 L 252 266 L 252 264 L 253 263 L 253 261 L 254 260 L 254 259 L 255 258 L 255 256 L 256 255 L 256 254 L 257 253 L 257 251 L 258 250 L 258 249 L 259 248 L 259 246 L 260 245 L 260 243 L 261 242 L 261 241 L 262 240 L 262 239 L 263 238 L 263 236 L 264 235 L 264 233 L 265 232 L 265 231 L 266 230 L 266 228 L 267 227 L 267 225 L 268 224 L 268 223 L 269 222 L 269 221 L 270 220 L 270 219 L 271 218 L 271 216 L 272 215 L 272 213 L 273 212 L 273 211 L 274 210 L 274 209 L 275 208 L 275 206 L 276 205 L 276 204 L 277 203 L 277 202 L 278 201 L 278 200 L 279 199 L 279 198 L 280 197 L 280 195 L 281 194 L 281 193 L 282 192 L 282 191 L 283 190 L 283 189 L 284 188 L 284 187 L 285 186 L 285 184 Z" fill="#0055FF" stroke="none" /><path d="M 40 7 L 39 8 L 27 8 L 26 9 L 24 9 L 23 10 L 21 10 L 20 11 L 19 11 L 13 17 L 13 19 L 12 20 L 12 26 L 11 27 L 11 390 L 12 391 L 12 401 L 13 402 L 13 405 L 14 406 L 14 408 L 19 413 L 19 414 L 20 415 L 20 416 L 24 420 L 25 420 L 26 421 L 27 421 L 28 422 L 30 422 L 31 423 L 34 423 L 35 424 L 41 424 L 42 425 L 67 425 L 68 424 L 76 424 L 77 423 L 80 423 L 81 422 L 82 422 L 83 421 L 84 421 L 85 420 L 86 420 L 91 415 L 91 414 L 92 413 L 92 412 L 93 411 L 93 409 L 94 408 L 94 404 L 95 403 L 95 394 L 96 393 L 95 392 L 95 391 L 96 390 L 96 389 L 95 388 L 95 386 L 96 385 L 95 384 L 95 383 L 96 382 L 96 381 L 95 380 L 95 376 L 96 375 L 96 374 L 95 373 L 96 372 L 96 371 L 95 370 L 96 369 L 96 366 L 95 365 L 96 364 L 95 363 L 96 362 L 96 359 L 95 358 L 95 357 L 96 356 L 95 355 L 96 354 L 96 353 L 95 352 L 96 351 L 95 350 L 95 61 L 96 60 L 96 59 L 95 58 L 96 57 L 96 55 L 95 54 L 96 53 L 96 50 L 95 49 L 95 35 L 94 34 L 94 28 L 93 27 L 93 25 L 92 24 L 92 22 L 91 21 L 91 20 L 90 20 L 87 17 L 86 17 L 82 13 L 81 13 L 79 11 L 78 11 L 77 10 L 75 10 L 74 9 L 71 9 L 70 8 L 63 8 L 62 7 Z" fill="#0055FF" stroke="none" /></svg>